<svg xmlns="http://www.w3.org/2000/svg" version="1.1" viewBox="0.00 0.00 400.00 400.00">
<g stroke-width="2.00" fill="none" stroke-linecap="butt">
<path stroke="#808080" vector-effect="non-scaling-stroke" d="
  M 158.6775 81.6180
  A 5.47 5.47 0.0 0 0 153.1979 76.1576
  L 81.6180 76.2825
  A 5.47 5.47 0.0 0 0 76.1576 81.7621
  L 76.2825 153.3420
  A 5.47 5.47 0.0 0 0 81.7621 158.8024
  L 153.3420 158.6775
  A 5.47 5.47 0.0 0 0 158.8024 153.1979
  L 158.6775 81.6180"
/>
<path stroke="#808080" vector-effect="non-scaling-stroke" d="
  M 323.79 81.68
  A 5.47 5.47 0.0 0 0 318.32 76.21
  L 246.74 76.21
  A 5.47 5.47 0.0 0 0 241.27 81.68
  L 241.27 153.26
  A 5.47 5.47 0.0 0 0 246.74 158.73
  L 318.32 158.73
  A 5.47 5.47 0.0 0 0 323.79 153.26
  L 323.79 81.68"
/>
<path stroke="#808080" vector-effect="non-scaling-stroke" d="
  M 241.2375 164.1380
  A 5.48 5.48 0.0 0 0 235.7479 158.6676
  L 164.1480 158.7925
  A 5.48 5.48 0.0 0 0 158.6776 164.2821
  L 158.8025 235.8620
  A 5.48 5.48 0.0 0 0 164.2921 241.3324
  L 235.8920 241.2075
  A 5.48 5.48 0.0 0 0 241.3624 235.7179
  L 241.2375 164.1380"
/>
<path stroke="#808080" vector-effect="non-scaling-stroke" d="
  M 158.8024 246.8121
  A 5.47 5.47 0.0 0 0 153.3420 241.3325
  L 81.7621 241.2076
  A 5.47 5.47 0.0 0 0 76.2825 246.6680
  L 76.1576 318.2479
  A 5.47 5.47 0.0 0 0 81.6180 323.7275
  L 153.1979 323.8524
  A 5.47 5.47 0.0 0 0 158.6775 318.3920
  L 158.8024 246.8121"
/>
<path stroke="#808080" vector-effect="non-scaling-stroke" d="
  M 323.79 246.71
  A 5.45 5.45 0.0 0 0 318.34 241.26
  L 246.72 241.26
  A 5.45 5.45 0.0 0 0 241.27 246.71
  L 241.27 318.33
  A 5.45 5.45 0.0 0 0 246.72 323.78
  L 318.34 323.78
  A 5.45 5.45 0.0 0 0 323.79 318.33
  L 323.79 246.71"
/>
</g>
<path fill="#000000" d="
  M 0.00 0.00
  L 400.00 0.00
  L 400.00 400.00
  L 0.00 400.00
  L 0.00 0.00
  Z
  M 158.6775 81.6180
  A 5.47 5.47 0.0 0 0 153.1979 76.1576
  L 81.6180 76.2825
  A 5.47 5.47 0.0 0 0 76.1576 81.7621
  L 76.2825 153.3420
  A 5.47 5.47 0.0 0 0 81.7621 158.8024
  L 153.3420 158.6775
  A 5.47 5.47 0.0 0 0 158.8024 153.1979
  L 158.6775 81.6180
  Z
  M 323.79 81.68
  A 5.47 5.47 0.0 0 0 318.32 76.21
  L 246.74 76.21
  A 5.47 5.47 0.0 0 0 241.27 81.68
  L 241.27 153.26
  A 5.47 5.47 0.0 0 0 246.74 158.73
  L 318.32 158.73
  A 5.47 5.47 0.0 0 0 323.79 153.26
  L 323.79 81.68
  Z
  M 241.2375 164.1380
  A 5.48 5.48 0.0 0 0 235.7479 158.6676
  L 164.1480 158.7925
  A 5.48 5.48 0.0 0 0 158.6776 164.2821
  L 158.8025 235.8620
  A 5.48 5.48 0.0 0 0 164.2921 241.3324
  L 235.8920 241.2075
  A 5.48 5.48 0.0 0 0 241.3624 235.7179
  L 241.2375 164.1380
  Z
  M 158.8024 246.8121
  A 5.47 5.47 0.0 0 0 153.3420 241.3325
  L 81.7621 241.2076
  A 5.47 5.47 0.0 0 0 76.2825 246.6680
  L 76.1576 318.2479
  A 5.47 5.47 0.0 0 0 81.6180 323.7275
  L 153.1979 323.8524
  A 5.47 5.47 0.0 0 0 158.6775 318.3920
  L 158.8024 246.8121
  Z
  M 323.79 246.71
  A 5.45 5.45 0.0 0 0 318.34 241.26
  L 246.72 241.26
  A 5.45 5.45 0.0 0 0 241.27 246.71
  L 241.27 318.33
  A 5.45 5.45 0.0 0 0 246.72 323.78
  L 318.34 323.78
  A 5.45 5.45 0.0 0 0 323.79 318.33
  L 323.79 246.71
  Z"
/>
<rect fill="#ffffff" x="-41.26" y="-41.26" transform="translate(117.48,117.48) rotate(-0.1)" width="82.52" height="82.52" rx="5.47"/>
<rect fill="#ffffff" x="241.27" y="76.21" width="82.52" height="82.52" rx="5.47"/>
<rect fill="#ffffff" x="-41.28" y="-41.27" transform="translate(200.02,200.00) rotate(-0.1)" width="82.56" height="82.54" rx="5.48"/>
<rect fill="#ffffff" x="-41.26" y="-41.26" transform="translate(117.48,282.53) rotate(0.1)" width="82.52" height="82.52" rx="5.47"/>
<rect fill="#ffffff" x="241.27" y="241.26" width="82.52" height="82.52" rx="5.45"/>
</svg>
