<svg viewBox="0 0 24 24" xmlns="http://www.w3.org/2000/svg" fill="none">
  <path
    d="M2.81716 8.49974C3.35853 8.49974 3.64454 8.19315 3.64454 7.66173V5.24987C3.64454 4.18702 4.20633 3.64538 5.22778 3.64538H7.69969C8.24106 3.64538 8.53728 3.349 8.53728 2.81758C8.53728 2.28615 8.24106 2 7.69969 2H5.20735C3.07252 2 2 3.05263 2 5.15789V7.66173C2 8.19315 2.29622 8.49974 2.81716 8.49974ZM21.1726 8.49974C21.714 8.49974 22 8.19315 22 7.66173V5.15789C22 3.05263 20.9275 2 18.7926 2H16.2901C15.7589 2 15.4627 2.28615 15.4627 2.81758C15.4627 3.349 15.7589 3.64538 16.2901 3.64538H18.762C19.7732 3.64538 20.3555 4.18702 20.3555 5.24987V7.66173C20.3555 8.19315 20.6517 8.49974 21.1726 8.49974ZM7.54648 11.5554H11.1011C11.3565 11.5554 11.5506 11.3613 11.5506 11.116V7.54931C11.5506 7.30404 11.3565 7.09964 11.1011 7.09964H7.54648C7.29111 7.09964 7.09704 7.30404 7.09704 7.54931V11.116C7.09704 11.3613 7.29111 11.5554 7.54648 11.5554ZM12.8784 11.5554H16.4331C16.6885 11.5554 16.8825 11.3613 16.8825 11.116V7.54931C16.8825 7.30404 16.6885 7.09964 16.4331 7.09964H12.8784C12.6231 7.09964 12.429 7.30404 12.429 7.54931V11.116C12.429 11.3613 12.6231 11.5554 12.8784 11.5554ZM7.9857 10.6663V7.98876H10.6619V10.6663H7.9857ZM13.3177 10.6663V7.98876H15.9939V10.6663H13.3177ZM8.762 9.88963H9.8856V8.76546H8.762V9.88963ZM14.1042 9.88963H15.2176V8.76546H14.1042V9.88963ZM7.54648 16.9004H11.1011C11.3565 16.9004 11.5506 16.7062 11.5506 16.4507V12.8942C11.5506 12.6387 11.3565 12.4446 11.1011 12.4446H7.54648C7.29111 12.4446 7.09704 12.6387 7.09704 12.8942V16.4507C7.09704 16.7062 7.29111 16.9004 7.54648 16.9004ZM12.5618 13.6811H13.6752V12.5672H12.5618V13.6811ZM15.6364 13.6811H16.7497V12.5672H15.6364V13.6811ZM7.9857 16.0112V13.3337H10.6619V16.0112H7.9857ZM8.762 15.2243H9.8856V14.1104H8.762V15.2243ZM14.094 15.2243H15.2176V14.1104H14.094V15.2243ZM5.20735 22H7.69969C8.24106 22 8.53728 21.7036 8.53728 21.1824C8.53728 20.651 8.24106 20.3546 7.69969 20.3546H5.22778C4.20633 20.3546 3.64454 19.813 3.64454 18.7501V16.3383C3.64454 15.7966 3.34831 15.5003 2.81716 15.5003C2.28601 15.5003 2 15.7966 2 16.3383V18.8319C2 20.9474 3.07252 22 5.20735 22ZM16.2901 22H18.7926C20.9275 22 22 20.9371 22 18.8319V16.3383C22 15.7966 21.7038 15.5003 21.1726 15.5003C20.6415 15.5003 20.3555 15.7966 20.3555 16.3383V18.7501C20.3555 19.813 19.7732 20.3546 18.762 20.3546H16.2901C15.7589 20.3546 15.4627 20.651 15.4627 21.1824C15.4627 21.7036 15.7589 22 16.2901 22ZM12.5618 16.7675H13.6752V15.6536H12.5618V16.7675ZM15.6364 16.7675H16.7497V15.6536H15.6364V16.7675Z"
    fill="currentColor"></path>
</svg>